<mxfile host="Electron" modified="2023-12-05T07:20:45.617Z" agent="Mozilla/5.0 (Macintosh; Intel Mac OS X 10_15_7) AppleWebKit/537.36 (KHTML, like Gecko) draw.io/22.1.2 Chrome/114.0.5735.289 Electron/25.9.4 Safari/537.36" etag="J70cpFF5urSCjxGqtLsU" version="22.1.2" type="device">
  <diagram name="Page-1" id="ffjxY0IS5s1KJjr98LjR">
    <mxGraphModel dx="1853" dy="658" grid="1" gridSize="10" guides="1" tooltips="1" connect="1" arrows="1" fold="1" page="1" pageScale="1" pageWidth="827" pageHeight="1169" math="0" shadow="0">
      <root>
        <mxCell id="0" />
        <mxCell id="1" parent="0" />
        <mxCell id="ZDbw2CN2QQgbVL5OcKwQ-1" value="Elastic Beanstalk container" style="points=[[0,0],[0.25,0],[0.5,0],[0.75,0],[1,0],[1,0.25],[1,0.5],[1,0.75],[1,1],[0.75,1],[0.5,1],[0.25,1],[0,1],[0,0.75],[0,0.5],[0,0.25]];outlineConnect=0;gradientColor=none;html=1;whiteSpace=wrap;fontSize=12;fontStyle=0;container=1;pointerEvents=0;collapsible=0;recursiveResize=0;shape=mxgraph.aws4.group;grIcon=mxgraph.aws4.group_elastic_beanstalk;strokeColor=#D86613;fillColor=none;verticalAlign=top;align=left;spacingLeft=30;fontColor=#D86613;dashed=0;" vertex="1" parent="1">
          <mxGeometry x="400" y="40" width="160" height="160" as="geometry" />
        </mxCell>
        <mxCell id="ZDbw2CN2QQgbVL5OcKwQ-4" value="Pet-Clinic-Rest" style="shape=image;verticalLabelPosition=bottom;labelBackgroundColor=default;verticalAlign=top;aspect=fixed;imageAspect=0;image=https://dz2cdn1.dzone.com/storage/temp/12434118-spring-boot-logo.png;" vertex="1" parent="ZDbw2CN2QQgbVL5OcKwQ-1">
          <mxGeometry x="35.97" y="41" width="88.06" height="79" as="geometry" />
        </mxCell>
        <mxCell id="ZDbw2CN2QQgbVL5OcKwQ-3" value="S3 Bucket&lt;br&gt;with enabled Web Hosting" style="sketch=0;points=[[0,0,0],[0.25,0,0],[0.5,0,0],[0.75,0,0],[1,0,0],[0,1,0],[0.25,1,0],[0.5,1,0],[0.75,1,0],[1,1,0],[0,0.25,0],[0,0.5,0],[0,0.75,0],[1,0.25,0],[1,0.5,0],[1,0.75,0]];outlineConnect=0;fontColor=#232F3E;fillColor=#7AA116;strokeColor=#ffffff;dashed=0;verticalLabelPosition=bottom;verticalAlign=top;align=center;html=1;fontSize=12;fontStyle=0;aspect=fixed;shape=mxgraph.aws4.resourceIcon;resIcon=mxgraph.aws4.s3;" vertex="1" parent="1">
          <mxGeometry x="200" y="81" width="78" height="78" as="geometry" />
        </mxCell>
        <mxCell id="ZDbw2CN2QQgbVL5OcKwQ-5" value="" style="shape=image;verticalLabelPosition=bottom;labelBackgroundColor=default;verticalAlign=top;aspect=fixed;imageAspect=0;image=https://upload.wikimedia.org/wikipedia/commons/thumb/c/cf/Angular_full_color_logo.svg/2048px-Angular_full_color_logo.svg.png;" vertex="1" parent="1">
          <mxGeometry x="209" y="30" width="60" height="60" as="geometry" />
        </mxCell>
        <mxCell id="ZDbw2CN2QQgbVL5OcKwQ-6" value="AWS Cloud" style="points=[[0,0],[0.25,0],[0.5,0],[0.75,0],[1,0],[1,0.25],[1,0.5],[1,0.75],[1,1],[0.75,1],[0.5,1],[0.25,1],[0,1],[0,0.75],[0,0.5],[0,0.25]];outlineConnect=0;gradientColor=none;html=1;whiteSpace=wrap;fontSize=12;fontStyle=0;container=1;pointerEvents=0;collapsible=0;recursiveResize=0;shape=mxgraph.aws4.group;grIcon=mxgraph.aws4.group_aws_cloud_alt;strokeColor=#232F3E;fillColor=none;verticalAlign=top;align=left;spacingLeft=30;fontColor=#232F3E;dashed=0;" vertex="1" parent="1">
          <mxGeometry x="-50" width="690" height="320" as="geometry" />
        </mxCell>
        <mxCell id="ZDbw2CN2QQgbVL5OcKwQ-8" value="" style="sketch=0;points=[[0,0,0],[0.25,0,0],[0.5,0,0],[0.75,0,0],[1,0,0],[0,1,0],[0.25,1,0],[0.5,1,0],[0.75,1,0],[1,1,0],[0,0.25,0],[0,0.5,0],[0,0.75,0],[1,0.25,0],[1,0.5,0],[1,0.75,0]];outlineConnect=0;fontColor=#232F3E;fillColor=#8C4FFF;strokeColor=#ffffff;dashed=0;verticalLabelPosition=bottom;verticalAlign=top;align=center;html=1;fontSize=12;fontStyle=0;aspect=fixed;shape=mxgraph.aws4.resourceIcon;resIcon=mxgraph.aws4.cloudfront;" vertex="1" parent="ZDbw2CN2QQgbVL5OcKwQ-6">
          <mxGeometry x="50" y="81" width="78" height="78" as="geometry" />
        </mxCell>
        <mxCell id="ZDbw2CN2QQgbVL5OcKwQ-13" value="VPC" style="points=[[0,0],[0.25,0],[0.5,0],[0.75,0],[1,0],[1,0.25],[1,0.5],[1,0.75],[1,1],[0.75,1],[0.5,1],[0.25,1],[0,1],[0,0.75],[0,0.5],[0,0.25]];outlineConnect=0;gradientColor=none;html=1;whiteSpace=wrap;fontSize=12;fontStyle=0;container=1;pointerEvents=0;collapsible=0;recursiveResize=0;shape=mxgraph.aws4.group;grIcon=mxgraph.aws4.group_vpc2;strokeColor=#8C4FFF;fillColor=none;verticalAlign=top;align=left;spacingLeft=30;fontColor=#AAB7B8;dashed=0;" vertex="1" parent="ZDbw2CN2QQgbVL5OcKwQ-6">
          <mxGeometry x="410" y="20" width="240" height="230" as="geometry" />
        </mxCell>
        <mxCell id="ZDbw2CN2QQgbVL5OcKwQ-10" value="distribute&lt;br&gt;" style="edgeStyle=orthogonalEdgeStyle;rounded=0;orthogonalLoop=1;jettySize=auto;html=1;entryX=0;entryY=0.5;entryDx=0;entryDy=0;entryPerimeter=0;" edge="1" parent="1" source="ZDbw2CN2QQgbVL5OcKwQ-8" target="ZDbw2CN2QQgbVL5OcKwQ-3">
          <mxGeometry relative="1" as="geometry" />
        </mxCell>
        <mxCell id="ZDbw2CN2QQgbVL5OcKwQ-15" value="access frontend" style="edgeStyle=orthogonalEdgeStyle;rounded=0;orthogonalLoop=1;jettySize=auto;html=1;" edge="1" parent="1" source="ZDbw2CN2QQgbVL5OcKwQ-14" target="ZDbw2CN2QQgbVL5OcKwQ-8">
          <mxGeometry relative="1" as="geometry" />
        </mxCell>
        <mxCell id="ZDbw2CN2QQgbVL5OcKwQ-14" value="" style="sketch=0;outlineConnect=0;fontColor=#232F3E;gradientColor=none;fillColor=#232F3D;strokeColor=none;dashed=0;verticalLabelPosition=bottom;verticalAlign=top;align=center;html=1;fontSize=12;fontStyle=0;aspect=fixed;pointerEvents=1;shape=mxgraph.aws4.user;" vertex="1" parent="1">
          <mxGeometry x="-230" y="121" width="78" height="78" as="geometry" />
        </mxCell>
        <mxCell id="ZDbw2CN2QQgbVL5OcKwQ-16" value="access backend" style="edgeStyle=orthogonalEdgeStyle;rounded=0;orthogonalLoop=1;jettySize=auto;html=1;entryX=0.5;entryY=1;entryDx=0;entryDy=0;" edge="1" parent="1" source="ZDbw2CN2QQgbVL5OcKwQ-14" target="ZDbw2CN2QQgbVL5OcKwQ-4">
          <mxGeometry x="-0.6839" relative="1" as="geometry">
            <mxPoint y="239" as="targetPoint" />
            <Array as="points">
              <mxPoint x="-191" y="230" />
              <mxPoint x="480" y="230" />
            </Array>
            <mxPoint as="offset" />
          </mxGeometry>
        </mxCell>
      </root>
    </mxGraphModel>
  </diagram>
</mxfile>
